<?xml version="1.0" standalone="no"?>
<!DOCTYPE svg PUBLIC "-//W3C//DTD SVG 20010904//EN"
 "http://www.w3.org/TR/2001/REC-SVG-20010904/DTD/svg10.dtd">
<svg version="1.0" xmlns="http://www.w3.org/2000/svg"
 width="1600.000000pt" height="377.000000pt" viewBox="0 0 1600.000000 377.000000"
 preserveAspectRatio="xMidYMid meet">

<g transform="translate(0.000000,377.000000) scale(0.100000,-0.100000)"
fill="#000000" stroke="none">
<path d="M2132 3369 c-99 -31 -170 -112 -208 -238 -8 -25 -41 -230 -74 -456
-33 -225 -70 -468 -81 -540 -47 -294 -36 -392 51 -477 71 -68 86 -70 550 -66
380 3 397 4 442 25 62 28 131 94 167 157 36 64 435 1129 456 1217 32 139 12
243 -64 319 -80 80 -78 80 -668 79 -480 0 -511 -1 -571 -20z"/>
<path d="M793 2340 c-55 -11 -91 -31 -129 -72 -69 -73 -79 -120 -99 -472 -20
-342 -19 -454 2 -508 25 -65 59 -106 113 -133 48 -25 53 -25 290 -25 270 0
281 2 352 76 64 65 67 79 163 679 37 236 33 297 -27 370 -38 46 -90 72 -169
85 -75 12 -435 12 -496 0z"/>
<path d="M5985 2099 c-135 -14 -242 -51 -337 -117 -124 -85 -212 -229 -225
-369 l-6 -63 126 0 c138 0 127 -5 142 70 17 84 76 168 151 216 128 82 345 85
474 6 116 -71 152 -228 74 -321 -48 -57 -113 -72 -354 -81 -238 -9 -316 -20
-406 -61 -138 -61 -214 -178 -214 -329 0 -190 120 -318 334 -357 238 -43 489
55 590 229 29 52 56 128 64 187 4 24 12 45 17 45 6 1 11 -77 13 -211 2 -168 5
-212 16 -216 8 -3 63 -5 122 -4 l109 2 3 465 c2 437 1 470 -18 544 -21 82 -74
178 -127 228 -75 69 -212 124 -334 133 -41 3 -90 7 -109 9 -19 2 -66 0 -105
-5z m445 -688 c0 -130 -15 -202 -57 -283 -46 -87 -122 -159 -219 -205 -65 -31
-88 -37 -167 -41 -132 -7 -198 9 -252 61 -55 53 -72 110 -56 181 15 65 43 102
102 132 42 21 73 26 185 34 299 22 392 67 438 213 14 43 26 -1 26 -92z"/>
<path d="M8634 2095 c-164 -35 -292 -156 -343 -320 -12 -37 -21 -76 -21 -86 0
-10 -7 -19 -15 -19 -12 0 -15 15 -15 73 0 41 -3 129 -7 195 l-6 122 -119 0
-118 0 0 -665 0 -665 124 0 124 0 4 408 c4 355 7 414 22 462 41 126 110 209
214 257 48 22 72 26 147 27 78 0 98 -4 150 -27 96 -45 149 -106 179 -207 14
-45 16 -121 16 -487 l0 -433 130 0 130 0 0 449 c0 264 -4 482 -11 528 -21 154
-113 282 -249 346 -118 56 -217 68 -336 42z"/>
<path d="M14840 2102 c-137 -8 -296 -67 -391 -146 -171 -143 -249 -384 -220
-676 23 -232 139 -419 317 -512 190 -100 480 -107 659 -16 130 65 213 146 271
263 32 66 57 158 46 170 -3 3 -58 5 -122 5 l-116 0 -11 -42 c-75 -277 -490
-348 -694 -119 -64 72 -109 194 -109 299 l0 22 536 0 536 0 -4 128 c-4 104 -9
140 -31 200 -100 283 -352 443 -667 424z m223 -240 c117 -54 183 -142 213
-281 14 -67 19 -183 8 -194 -3 -3 -34 10 -67 28 -132 73 -262 95 -553 95 -99
0 -183 2 -186 5 -8 9 10 94 34 158 36 98 142 188 255 217 21 5 81 8 134 6 83
-2 105 -7 162 -34z"/>
<path d="M4410 2079 c-185 -50 -320 -159 -400 -323 -54 -112 -65 -172 -64
-366 0 -159 3 -183 26 -260 37 -118 70 -173 157 -260 130 -130 264 -180 482
-180 198 0 339 51 462 169 86 81 138 177 162 299 l7 32 -122 0 c-106 0 -121
-2 -126 -17 -15 -54 -71 -147 -106 -179 -92 -83 -232 -120 -359 -95 -201 40
-328 188 -341 396 l-3 50 539 3 539 2 -5 113 c-5 88 -12 132 -37 207 -44 136
-105 223 -211 304 -125 94 -198 117 -385 122 -118 3 -152 1 -215 -17z m303
-194 c150 -39 268 -179 279 -330 l3 -40 -395 -3 c-217 -1 -400 0 -406 2 -17 6
5 118 35 179 76 158 290 243 484 192z"/>
<path d="M11920 2077 c-118 -32 -203 -80 -280 -157 -94 -94 -160 -233 -160
-337 l0 -34 126 3 127 3 13 52 c55 215 220 316 465 286 108 -14 168 -42 220
-103 44 -52 64 -119 54 -182 -21 -126 -116 -168 -385 -168 -311 0 -478 -54
-567 -183 -43 -64 -57 -115 -56 -212 1 -197 106 -307 341 -354 164 -34 373 22
498 132 55 48 120 163 134 237 18 94 20 100 30 100 6 0 11 -57 11 -142 1 -79
4 -177 8 -218 l6 -75 115 0 115 0 3 470 c1 308 -1 488 -9 522 -24 118 -114
246 -212 302 -101 57 -176 73 -352 77 -143 4 -169 2 -245 -19z m558 -757 c-4
-138 -24 -192 -107 -282 -106 -116 -226 -164 -391 -156 -101 5 -154 24 -197
70 -63 68 -57 214 11 271 55 46 93 57 237 67 204 15 315 43 370 96 24 23 35
43 65 119 12 28 16 -42 12 -185z"/>
<path d="M7685 2076 c-44 -7 -98 -19 -120 -26 -150 -49 -252 -194 -299 -421
-22 -109 -36 -86 -36 59 0 71 -3 184 -7 250 l-6 122 -119 0 -118 0 0 -665 0
-665 125 0 125 0 0 263 c0 280 8 394 36 503 55 223 200 332 477 360 l67 7 0
113 c0 131 13 121 -125 100z"/>
<path d="M9335 2038 c4 -13 22 -63 40 -113 18 -49 57 -155 85 -235 29 -80 95
-262 147 -405 52 -143 118 -325 145 -405 28 -80 56 -148 62 -152 6 -5 64 -8
129 -7 111 1 119 2 127 22 5 12 68 218 140 457 161 533 165 545 175 545 10 0
21 -33 104 -310 33 -110 83 -276 112 -370 28 -93 60 -201 71 -239 31 -113 21
-106 162 -106 l124 0 10 28 c6 15 40 110 77 211 36 102 99 275 140 385 127
347 255 703 255 709 0 4 -60 7 -134 7 l-133 0 -68 -192 c-38 -106 -88 -247
-111 -313 -24 -66 -72 -206 -106 -312 -35 -106 -68 -192 -73 -193 -6 0 -31 69
-55 153 -42 147 -155 527 -222 750 l-33 107 -117 0 c-64 0 -119 -4 -122 -8 -5
-8 -82 -254 -104 -332 -6 -19 -46 -159 -90 -310 -44 -151 -85 -294 -92 -318
-6 -24 -16 -42 -21 -40 -5 2 -57 143 -114 313 -57 171 -135 396 -173 500 l-69
190 -137 3 -138 3 7 -23z"/>
<path d="M12854 2023 c8 -21 55 -141 106 -268 130 -327 213 -537 316 -797 l89
-226 143 -4 c92 -2 147 1 152 7 5 6 25 51 43 100 19 50 82 209 140 355 58 146
158 398 222 560 64 162 119 298 122 303 2 4 -57 6 -132 5 l-137 -3 -125 -335
c-68 -184 -140 -378 -160 -430 -20 -52 -47 -124 -60 -160 -14 -36 -29 -77 -35
-92 -6 -16 -16 -28 -22 -28 -6 0 -28 46 -48 103 -20 56 -60 163 -88 237 -28
74 -57 151 -64 170 -8 19 -41 109 -75 200 -34 91 -77 204 -94 252 l-32 88
-137 0 -137 0 13 -37z"/>
<path d="M1713 1271 c-48 -22 -85 -78 -102 -156 -6 -27 -27 -160 -47 -295 -41
-276 -39 -308 18 -367 48 -50 83 -57 273 -57 256 -1 255 -1 375 317 132 351
140 375 140 437 0 43 -5 64 -21 84 -40 51 -69 56 -343 56 -224 0 -255 -2 -293
-19z"/>
</g>
</svg>
